<?xml version="1.0" encoding="UTF-8" standalone="no"?>
<!-- Uploaded to: SVG Repo, www.svgrepo.com, Transformed by: SVG Repo Mixer Tools -->

<svg
   width="800px"
   height="800px"
   viewBox="-21.12 -21.12 138.24 138.24"
   fill="#000000"
   version="1.1"
   id="svg13"
   sodipodi:docname="Biology.svg"
   inkscape:version="1.4 (e7c3feb100, 2024-10-09)"
   xmlns:inkscape="http://www.inkscape.org/namespaces/inkscape"
   xmlns:sodipodi="http://sodipodi.sourceforge.net/DTD/sodipodi-0.dtd"
   xmlns="http://www.w3.org/2000/svg"
   xmlns:svg="http://www.w3.org/2000/svg">
  <defs
     id="defs13" />
  <sodipodi:namedview
     id="namedview13"
     pagecolor="#505050"
     bordercolor="#eeeeee"
     borderopacity="1"
     inkscape:showpageshadow="0"
     inkscape:pageopacity="0"
     inkscape:pagecheckerboard="0"
     inkscape:deskcolor="#505050"
     inkscape:zoom="0.89125"
     inkscape:cx="400"
     inkscape:cy="399.43899"
     inkscape:window-width="1900"
     inkscape:window-height="1028"
     inkscape:window-x="0"
     inkscape:window-y="0"
     inkscape:window-maximized="1"
     inkscape:current-layer="SVGRepo_bgCarrier" />
  <g
     id="SVGRepo_bgCarrier"
     stroke-width="0"
     transform="translate(0,0), scale(1)"
     style="stroke:#cba600;stroke-opacity:1">
    <rect
       x="-21.12"
       y="-21.12"
       width="138.24"
       height="138.24"
       rx="69.12"
       fill="#26a269"
       strokewidth="0"
       id="rect1"
       style="stroke:#cba6f7;stroke-opacity:1;fill:#cba6f7;fill-opacity:1" />
  </g>
  <g
     id="SVGRepo_tracerCarrier"
     stroke-linecap="round"
     stroke-linejoin="round"
     stroke="#CCCCCC"
     stroke-width="0.192" />
  <g
     id="SVGRepo_iconCarrier">
    <title
       id="title1" />
    <path
       d="M82.06,42.6h0a9.52,9.52,0,0,0-7.61,1.1A26.76,26.76,0,0,0,49,25h-.21l6.93-7h0A34.48,34.48,0,0,1,82.06,42.6Z"
       style="fill:#eaeaea"
       id="path1" />
    <path
       d="M82,61.07A34.3,34.3,0,0,1,14.63,52h7.63a26.7,26.7,0,0,0,52.17,8,9.45,9.45,0,0,0,5,1.45A9.35,9.35,0,0,0,82,61.07Z"
       style="fill:#eaeaea"
       id="path2" />
    <path
       d="M17,87H79a7,7,0,0,1,7,7v0a0,0,0,0,1,0,0H10a0,0,0,0,1,0,0v0A7,7,0,0,1,17,87Z"
       style="fill:#575072"
       id="path3" />
    <path
       d="M17,87H79a7,7,0,0,1,7,7v0a0,0,0,0,1,0,0H10a0,0,0,0,1,0,0v0A7,7,0,0,1,17,87Z"
       style="fill:none;stroke:#281a3b;stroke-linecap:round;stroke-linejoin:round;stroke-width:4px"
       id="path4" />
    <path
       d="M82.06,42.6h0a9.52,9.52,0,0,0-7.61,1.1A26.76,26.76,0,0,0,49,25h-.21l6.93-7h0A34.48,34.48,0,0,1,82.06,42.6Z"
       style="fill:#eaeaea"
       id="path5" />
    <path
       d="M82.06,42.6h0a9.52,9.52,0,0,0-7.61,1.1A26.76,26.76,0,0,0,49,25h-.21l6.93-7h0A34.48,34.48,0,0,1,82.06,42.6Z"
       style="fill:none;stroke:#281a3b;stroke-linecap:round;stroke-linejoin:round;stroke-width:4px"
       id="path6" />
    <rect
       height="7"
       style="fill:#575072"
       width="26"
       x="7"
       y="45"
       id="rect6" />
    <rect
       height="7"
       style="fill:none;stroke:#281a3b;stroke-linecap:round;stroke-linejoin:round;stroke-width:4px"
       width="26"
       x="7"
       y="45"
       id="rect7" />
    <polygon
       points="57.94 15.69 41.16 32.67 33.7 25.12 50.48 8.14 57.94 15.69"
       style="fill:#575072"
       id="polygon7" />
    <polygon
       points="57.94 15.69 41.16 32.67 33.7 25.12 50.48 8.14 57.94 15.69"
       style="fill:none;stroke:#281a3b;stroke-linecap:round;stroke-linejoin:round;stroke-width:4px"
       id="polygon8" />
    <line
       style="fill:none;stroke:#281a3b;stroke-linecap:round;stroke-linejoin:round;stroke-width:4px"
       x1="41.16"
       x2="48.62"
       y1="17.57"
       y2="25.12"
       id="line8" />
    <polygon
       points="56.77 14.51 51.86 9.53 59.31 2 64.21 6.96 56.77 14.51"
       style="fill:#eaeaea"
       id="polygon9" />
    <polygon
       points="56.77 14.51 51.86 9.53 59.31 2 64.21 6.96 56.77 14.51"
       style="fill:none;stroke:#281a3b;stroke-linecap:round;stroke-linejoin:round;stroke-width:4px"
       id="polygon10" />
    <path
       d="M82,61.07A34.3,34.3,0,0,1,14.63,52h7.63a26.7,26.7,0,0,0,52.17,8,9.45,9.45,0,0,0,5,1.45A9.35,9.35,0,0,0,82,61.07Z"
       style="fill:none;stroke:#281a3b;stroke-linecap:round;stroke-linejoin:round;stroke-width:4px"
       id="path10" />
    <ellipse
       cx="79.47"
       cy="51.83"
       rx="9.53"
       ry="9.58"
       style="fill:#575072"
       id="ellipse10" />
    <ellipse
       cx="79.47"
       cy="51.83"
       rx="9.53"
       ry="9.58"
       style="fill:none;stroke:#281a3b;stroke-linecap:round;stroke-linejoin:round;stroke-width:4px"
       id="ellipse11" />
    <ellipse
       cx="79.47"
       cy="51.83"
       rx="3.81"
       ry="3.83"
       style="fill:#eaeaea"
       id="ellipse12" />
    <ellipse
       cx="79.47"
       cy="51.83"
       rx="3.81"
       ry="3.83"
       style="fill:none;stroke:#281a3b;stroke-linecap:round;stroke-linejoin:round;stroke-width:4px"
       id="ellipse13" />
  </g>
</svg>
