<?xml version="1.0" encoding="UTF-8" standalone="no"?>
<!-- Uploaded to: SVG Repo, www.svgrepo.com, Transformed by: SVG Repo Mixer Tools -->

<svg
   width="800px"
   height="800px"
   viewBox="-2.4 -2.4 28.80 28.80"
   data-name="025_SCIENCE"
   id="_025_SCIENCE"
   fill="#000000"
   version="1.1"
   sodipodi:docname="Chemistry_light.svg"
   inkscape:version="1.4 (e7c3feb100, 2024-10-09)"
   xmlns:inkscape="http://www.inkscape.org/namespaces/inkscape"
   xmlns:sodipodi="http://sodipodi.sourceforge.net/DTD/sodipodi-0.dtd"
   xmlns="http://www.w3.org/2000/svg"
   xmlns:svg="http://www.w3.org/2000/svg">
  <defs
     id="defs7" />
  <sodipodi:namedview
     id="namedview7"
     pagecolor="#505050"
     bordercolor="#eeeeee"
     borderopacity="1"
     inkscape:showpageshadow="0"
     inkscape:pageopacity="0"
     inkscape:pagecheckerboard="0"
     inkscape:deskcolor="#505050"
     inkscape:zoom="0.89125"
     inkscape:cx="400"
     inkscape:cy="399.43899"
     inkscape:window-width="1408"
     inkscape:window-height="1028"
     inkscape:window-x="0"
     inkscape:window-y="0"
     inkscape:window-maximized="1"
     inkscape:current-layer="_025_SCIENCE" />
  <g
     id="SVGRepo_bgCarrier"
     stroke-width="0"
     style="fill:#8839ef;fill-opacity:1">
    <rect
       x="-2.4"
       y="-2.4"
       width="28.80"
       height="28.80"
       rx="14.4"
       fill="#26a269"
       strokewidth="0"
       id="rect1"
       style="fill:#8839ef;fill-opacity:1" />
  </g>
  <g
     id="SVGRepo_tracerCarrier"
     stroke-linecap="round"
     stroke-linejoin="round" />
  <g
     id="SVGRepo_iconCarrier">
    <defs
       id="defs1">
      <style
         id="style1">.cls-1{fill:#333;}</style>
    </defs>
    <path
       class="cls-1"
       d="M17.46,22H6.54a4.55,4.55,0,0,1-3.42-7.54L9,7.75V4a1,1,0,0,1,2,0V8.12a1,1,0,0,1-.25.66l-6.12,7A2.54,2.54,0,0,0,6.54,20H17.46a2.54,2.54,0,0,0,1.91-4.22l-6.12-7A1,1,0,0,1,13,8.12V6.5a1,1,0,0,1,2,0V7.75l5.88,6.71A4.55,4.55,0,0,1,17.46,22Z"
       id="path1" />
    <path
       class="cls-1"
       d="M15,4.12H9a1,1,0,0,1,0-2h6a1,1,0,0,1,0,2Z"
       id="path2" />
    <path
       class="cls-1"
       d="M19,15H10a1,1,0,0,1,0-2h9a1,1,0,0,1,0,2Z"
       id="path3" />
    <path
       class="cls-1"
       d="M7,18a1,1,0,0,1-1-1,1,1,0,0,1,.08-.38.93.93,0,0,1,.21-.33,1,1,0,0,1,1.42,0,1,1,0,0,1,.21.33A.84.84,0,0,1,8,17a1,1,0,0,1-1,1Z"
       id="path4" />
    <path
       class="cls-1"
       d="M11,21a1,1,0,0,1-.38-.08.93.93,0,0,1-.33-.21,1,1,0,0,1,0-1.42.93.93,0,0,1,.33-.21,1,1,0,0,1,1.09.21A1,1,0,0,1,11,21Z"
       id="path5" />
    <path
       class="cls-1"
       d="M15,18l-.19,0a.6.6,0,0,1-.19-.06.76.76,0,0,1-.18-.09l-.15-.12A1.05,1.05,0,0,1,14,17a1,1,0,0,1,.08-.38.93.93,0,0,1,.21-.33,1.58,1.58,0,0,1,.15-.12.76.76,0,0,1,.18-.09.6.6,0,0,1,.19-.06,1,1,0,0,1,.9.27.93.93,0,0,1,.21.33A1,1,0,0,1,16,17a1,1,0,0,1-1,1Z"
       id="path6" />
    <path
       class="cls-1"
       d="M12,12a1.05,1.05,0,0,1-.71-.29,1.15,1.15,0,0,1-.21-.33.94.94,0,0,1,0-.76,1,1,0,0,1,.21-.33A1,1,0,0,1,12.2,10l.18.06.18.09.15.12a1.15,1.15,0,0,1,.21.33A1,1,0,0,1,13,11a1,1,0,0,1-1,1Z"
       id="path7" />
  </g>
</svg>
