<?xml version="1.0" encoding="UTF-8" standalone="no"?>
<!-- Uploaded to: SVG Repo, www.svgrepo.com, Transformed by: SVG Repo Mixer Tools -->

<svg
   width="800px"
   height="800px"
   viewBox="-112.64 -112.64 737.28 737.28"
   fill="#000000"
   version="1.1"
   id="svg14"
   sodipodi:docname="History_light.svg"
   inkscape:version="1.4 (e7c3feb100, 2024-10-09)"
   xmlns:inkscape="http://www.inkscape.org/namespaces/inkscape"
   xmlns:sodipodi="http://sodipodi.sourceforge.net/DTD/sodipodi-0.dtd"
   xmlns="http://www.w3.org/2000/svg"
   xmlns:svg="http://www.w3.org/2000/svg">
  <defs
     id="defs14" />
  <sodipodi:namedview
     id="namedview14"
     pagecolor="#505050"
     bordercolor="#eeeeee"
     borderopacity="1"
     inkscape:showpageshadow="0"
     inkscape:pageopacity="0"
     inkscape:pagecheckerboard="0"
     inkscape:deskcolor="#505050"
     inkscape:zoom="0.89125"
     inkscape:cx="400"
     inkscape:cy="399.43899"
     inkscape:window-width="1408"
     inkscape:window-height="1028"
     inkscape:window-x="0"
     inkscape:window-y="0"
     inkscape:window-maximized="1"
     inkscape:current-layer="svg14" />
  <g
     id="SVGRepo_bgCarrier"
     stroke-width="0"
     transform="translate(0,0), scale(1)"
     style="fill:#8839ef;fill-opacity:1">
    <rect
       x="-112.64"
       y="-112.64"
       width="737.28"
       height="737.28"
       rx="368.64"
       fill="#26a269"
       strokewidth="0"
       id="rect1"
       style="fill:#8839ef;fill-opacity:1" />
  </g>
  <g
     id="SVGRepo_tracerCarrier"
     stroke-linecap="round"
     stroke-linejoin="round"
     stroke="#63452c"
     stroke-width="3.072" />
  <g
     id="SVGRepo_iconCarrier">
    <defs
       id="defs1">
      <style
         id="style1">.cls-1{fill:none;stroke:#000000;stroke-linecap:round;stroke-linejoin:round;stroke-width:20px;}</style>
    </defs>
    <g
       data-name="Layer 2"
       id="Layer_2">
      <g
         data-name="E425, History, log, manuscript"
         id="E425_History_log_manuscript">
        <path
           class="cls-1"
           d="M75.11,117h0A21.34,21.34,0,0,1,53.83,95.57V31.39A21.34,21.34,0,0,1,75.11,10h0A21.34,21.34,0,0,1,96.39,31.39V95.57A21.34,21.34,0,0,1,75.11,117Z"
           id="path1" />
        <rect
           class="cls-1"
           height="64.17"
           width="319.22"
           x="96.39"
           y="31.39"
           id="rect2" />
        <rect
           class="cls-1"
           height="320.87"
           width="319.22"
           x="96.39"
           y="95.57"
           id="rect3" />
        <path
           class="cls-1"
           d="M34.34,39.08H53.83a0,0,0,0,1,0,0v48.8a0,0,0,0,1,0,0H34.34A24.34,24.34,0,0,1,10,63.54v-.13A24.34,24.34,0,0,1,34.34,39.08Z"
           id="path3" />
        <path
           class="cls-1"
           d="M436.89,117h0a21.34,21.34,0,0,0,21.28-21.39V31.39A21.34,21.34,0,0,0,436.89,10h0a21.34,21.34,0,0,0-21.28,21.39V95.57A21.34,21.34,0,0,0,436.89,117Z"
           id="path4" />
        <path
           class="cls-1"
           d="M482.51,39.08H502a0,0,0,0,1,0,0v48.8a0,0,0,0,1,0,0H482.51a24.34,24.34,0,0,1-24.34-24.34v-.13a24.34,24.34,0,0,1,24.34-24.34Z"
           transform="translate(960.17 126.96) rotate(-180)"
           id="path5" />
        <path
           class="cls-1"
           d="M75.11,395h0a21.34,21.34,0,0,0-21.28,21.39v64.18A21.34,21.34,0,0,0,75.11,502h0a21.34,21.34,0,0,0,21.28-21.39V416.43A21.34,21.34,0,0,0,75.11,395Z"
           id="path6" />
        <rect
           class="cls-1"
           height="64.17"
           width="319.22"
           x="96.39"
           y="416.43"
           id="rect6" />
        <path
           class="cls-1"
           d="M34.34,424.12H53.83a0,0,0,0,1,0,0v48.8a0,0,0,0,1,0,0H34.34A24.34,24.34,0,0,1,10,448.58v-.13A24.34,24.34,0,0,1,34.34,424.12Z"
           id="path7" />
        <path
           class="cls-1"
           d="M436.89,395h0a21.34,21.34,0,0,1,21.28,21.39v64.18A21.34,21.34,0,0,1,436.89,502h0a21.34,21.34,0,0,1-21.28-21.39V416.43A21.34,21.34,0,0,1,436.89,395Z"
           id="path8" />
        <path
           class="cls-1"
           d="M482.51,424.12H502a0,0,0,0,1,0,0v48.8a0,0,0,0,1,0,0H482.51a24.34,24.34,0,0,1-24.34-24.34v-.13a24.34,24.34,0,0,1,24.34-24.34Z"
           transform="translate(960.17 897.04) rotate(-180)"
           id="path9" />
        <line
           class="cls-1"
           x1="143.41"
           x2="256"
           y1="140.11"
           y2="140.11"
           id="line9" />
        <line
           class="cls-1"
           x1="143.41"
           x2="371.26"
           y1="186.47"
           y2="186.47"
           id="line10" />
        <line
           class="cls-1"
           x1="143.41"
           x2="371.26"
           y1="232.82"
           y2="232.82"
           id="line11" />
        <line
           class="cls-1"
           x1="143.41"
           x2="371.26"
           y1="279.18"
           y2="279.18"
           id="line12" />
        <line
           class="cls-1"
           x1="143.41"
           x2="371.26"
           y1="325.53"
           y2="325.53"
           id="line13" />
        <line
           class="cls-1"
           x1="256"
           x2="371.26"
           y1="371.89"
           y2="371.89"
           id="line14" />
      </g>
    </g>
  </g>
</svg>
